<svg width="101" height="120" viewBox="0 0 101 120" fill="none" xmlns="http://www.w3.org/2000/svg">
<path d="M47.1945 1.74048C30.6673 15.2061 3.21364 20.5191 3.21364 20.5191V49.5573C3.21364 92.4275 47.1945 108.916 47.1945 108.916C47.1945 108.916 91.1755 92.4275 91.1755 49.5573L93.3791 22.2596L91.1755 20.6107C91.1755 20.5191 63.7218 15.2061 47.1945 1.74048Z" fill="#F0F0FC"/>
<path d="M49.3982 3.3894C32.7791 16.8551 5.32547 22.2596 5.32547 22.2596V51.2978C5.32547 94.168 49.3064 110.657 49.3064 110.657C49.3064 110.657 93.2873 94.168 93.2873 51.2978V22.2596C93.3791 22.2596 65.9255 16.8551 49.3982 3.3894Z" fill="url(#paint0_linear)"/>
<path d="M49.3982 98.1983C45.7255 96.2746 39.9409 92.9769 34.2482 88.0304C22.5873 77.7708 16.6191 65.4044 16.6191 51.2059V31.0533C25.1582 28.6716 38.1045 24.2746 49.3064 17.2212C60.6 24.2746 73.5464 28.6716 82.0854 31.0533V51.2059C82.0854 78.8701 58.8554 93.4349 49.3982 98.1983Z" fill="url(#paint1_linear)"/>
<path d="M80.5245 30.687V50.5649C80.5245 78.1374 57.4782 92.7023 47.9291 97.5572C48.3882 97.832 48.9391 98.1069 49.3982 98.2901C58.9472 93.5267 82.0854 78.9618 82.0854 51.2977V31.145C81.5345 30.9618 81.0754 30.7786 80.5245 30.687Z" fill="#F0F0FC"/>
<path d="M31.31 54.5954C34.0645 56.1527 36.5436 57.9847 39.0227 59.8168C41.5018 61.6488 43.7973 63.5725 46.0927 65.5878H42.2364C44.44 63.1145 46.6436 60.6412 49.0309 58.3511C51.3264 56.0611 53.7136 53.6794 56.1927 51.5725C58.6718 49.374 61.2427 47.2672 63.8136 45.2519C66.4764 43.2366 69.1391 41.313 72.1691 39.5725C70.4245 42.5038 68.4964 45.2519 66.4764 47.9084C64.4564 50.5649 62.3445 53.0382 60.1409 55.5114C57.9373 57.9847 55.6418 60.3664 53.3464 62.6565C51.0509 64.9466 48.5718 67.2366 46.0927 69.4351L43.9809 71.2672L42.3282 69.4351C40.3082 67.145 38.38 64.8549 36.5436 62.3817C34.6155 59.8168 32.8709 57.3435 31.31 54.5954Z" fill="white"/>
<defs>
<linearGradient id="paint0_linear" x1="5.90889" y1="5.10674" x2="118.494" y2="67.0322" gradientUnits="userSpaceOnUse">
<stop stop-color="#AAD6FF"/>
<stop offset="1" stop-color="#2E8ACB"/>
</linearGradient>
<linearGradient id="paint1_linear" x1="16.6105" y1="57.7047" x2="82.0943" y2="57.7047" gradientUnits="userSpaceOnUse">
<stop stop-color="#144188"/>
<stop offset="0.998" stop-color="#102465"/>
</linearGradient>
</defs>
</svg>
