<svg width="158" height="30" viewBox="0 0 158 30" fill="none" xmlns="http://www.w3.org/2000/svg">
<path d="M5.81479 5.26036C3.86737 5.26036 2.00109 5.82836 0.743377 6.84264L1.67652 8.50607C2.60966 7.69464 4.1108 7.20778 5.57137 7.20778C7.80279 7.20778 8.89821 8.30321 8.89821 10.1695V10.6158H5.32794C1.67652 10.6158 0.378235 12.2386 0.378235 14.2266C0.378235 16.3769 2.16337 17.878 4.9628 17.878C6.86965 17.878 8.24907 17.1883 8.97936 16.0929V17.7158H11.1296V10.2506C11.1296 6.88321 9.22278 5.26036 5.81479 5.26036ZM5.32794 16.1335C3.62394 16.1335 2.60966 15.3626 2.60966 14.1455C2.60966 13.0906 3.21823 12.2386 5.44965 12.2386H8.89821V13.9426C8.33022 15.3626 6.99136 16.1335 5.32794 16.1335ZM21.597 5.26036C19.609 5.26036 18.0268 5.99064 17.1342 7.24836V5.38208H14.9839V17.7158H17.2153V11.3461C17.2153 8.66835 18.757 7.24836 21.1508 7.24836C23.2605 7.24836 24.4776 8.4655 24.4776 10.8592V17.7158H26.709V10.6158C26.709 6.96436 24.5993 5.26036 21.597 5.26036ZM39.0833 5.38208L34.8233 15.2409L30.5227 5.38208H28.1696L33.6467 17.6752L33.241 18.5678C32.6324 19.9878 31.9427 20.4746 30.8879 20.4746C30.0359 20.4746 29.265 20.15 28.6565 19.5415L27.7233 21.2455C28.4942 21.9757 29.7113 22.3815 30.8879 22.3815C32.7542 22.3815 34.1742 21.57 35.2696 18.9329L41.2741 5.38208H39.0833ZM49.713 15.4032C49.2261 15.7683 48.6175 15.9712 47.9278 15.9712C46.7107 15.9712 46.021 15.2409 46.021 13.9021V7.20778H49.5507V5.38208H46.021V2.6638H43.7896V5.38208H41.6799V7.20778H43.7896V13.9832C43.7896 16.4986 45.2096 17.878 47.6844 17.878C48.6987 17.878 49.713 17.594 50.4027 16.9855L49.713 15.4032ZM59.4095 5.26036C57.5432 5.26036 56.0015 5.95007 55.0684 7.12664V0.432373H52.837V17.7158H55.0684V11.3461C55.0684 8.66835 56.6101 7.24836 58.9632 7.24836C61.0729 7.24836 62.2901 8.4655 62.2901 10.8592V17.7158H64.5215V10.6158C64.5215 6.96436 62.4118 5.26036 59.4095 5.26036ZM70.5666 7.45121V5.38208H68.4164V17.7158H70.6478V11.5895C70.6478 8.87121 72.1489 7.41064 74.5426 7.41064C74.7049 7.41064 74.8672 7.41064 75.0701 7.41064V5.26036C72.8792 5.26036 71.3375 5.99064 70.5666 7.45121ZM88.5803 11.6301C88.5803 7.81635 86.0243 5.26036 82.454 5.26036C78.9243 5.26036 76.2872 7.8975 76.2872 11.5489C76.2872 15.2409 78.9243 17.878 82.9003 17.878C84.9695 17.878 86.6735 17.1478 87.7689 15.8495L86.5517 14.4295C85.6592 15.4032 84.442 15.89 82.9815 15.89C80.5472 15.89 78.8026 14.4701 78.5186 12.2792H88.5397C88.5397 12.0763 88.5803 11.7923 88.5803 11.6301ZM82.454 7.12664C84.6449 7.12664 86.1866 8.62778 86.43 10.6969H78.5186C78.762 8.58721 80.3443 7.12664 82.454 7.12664ZM102.577 11.6301C102.577 7.81635 100.021 5.26036 96.4511 5.26036C92.8809 5.26036 90.2437 7.8975 90.2437 11.5489C90.2437 15.2409 92.9214 17.878 96.8974 17.878C98.9666 17.878 100.63 17.1478 101.766 15.8495L100.549 14.4295C99.6157 15.4032 98.3986 15.89 96.9786 15.89C94.5037 15.89 92.7592 14.4701 92.5157 12.2792H102.496C102.537 12.0763 102.577 11.7923 102.577 11.6301ZM96.4511 7.12664C98.642 7.12664 100.184 8.62778 100.427 10.6969H92.5157C92.7186 8.58721 94.3009 7.12664 96.4511 7.12664Z" fill="#00A4EF"/>
<path d="M105.906 17.8777C106.758 17.8777 107.448 17.188 107.448 16.2548C107.448 15.3217 106.758 14.6726 105.906 14.6726C105.054 14.6726 104.324 15.3217 104.324 16.2548C104.324 17.188 105.054 17.8777 105.906 17.8777ZM115.522 17.8777C117.712 17.8777 119.579 16.9446 120.552 15.2L118.848 14.1451C118.037 15.3623 116.82 15.8897 115.481 15.8897C113.047 15.8897 111.262 14.2263 111.262 11.5486C111.262 8.91143 113.047 7.20743 115.481 7.20743C116.82 7.20743 118.037 7.77543 118.848 8.99257L120.552 7.89715C119.579 6.15258 117.712 5.26001 115.522 5.26001C111.708 5.26001 108.99 7.85658 108.99 11.5486C108.99 15.2406 111.708 17.8777 115.522 17.8777ZM128.261 17.8777C131.953 17.8777 134.671 15.2406 134.671 11.5486C134.671 7.85658 131.953 5.26001 128.261 5.26001C124.569 5.26001 121.851 7.85658 121.851 11.5486C121.851 15.2406 124.569 17.8777 128.261 17.8777ZM128.261 15.8897C125.867 15.8897 124.082 14.1857 124.082 11.5486C124.082 8.91143 125.867 7.20743 128.261 7.20743C130.655 7.20743 132.399 8.91143 132.399 11.5486C132.399 14.1857 130.655 15.8897 128.261 15.8897ZM152.928 5.26001C150.819 5.26001 149.115 6.15258 148.181 7.532C147.37 5.99029 145.788 5.26001 143.881 5.26001C142.015 5.26001 140.513 5.94972 139.621 7.20743V5.38172H137.511V17.7154H139.743V11.3457C139.743 8.668 141.203 7.24801 143.435 7.24801C145.463 7.24801 146.64 8.46515 146.64 10.8589V17.7154H148.871V11.3457C148.871 8.668 150.332 7.24801 152.563 7.24801C154.592 7.24801 155.768 8.46515 155.768 10.8589V17.7154H158V10.6154C158 6.96401 155.931 5.26001 152.928 5.26001Z" fill="#00A4EF"/>
<path d="M4.19406 29.2385H5.04606L3.09863 24.938H2.28721L0.339783 29.2385H1.19178L1.59749 28.2648H3.74777L4.19406 29.2385ZM1.88149 27.6157L2.69292 25.7494L3.50435 27.6157H1.88149Z" fill="#FFB900"/>
<path d="M9.67115 24.938V27.8591L7.27744 24.938H6.6283V29.2385H7.43972V26.3174L9.79286 29.2385H10.4826V24.938H9.67115Z" fill="#FFB900"/>
<path d="M16.2436 24.938H15.4322L14.1339 27.0477L12.8762 24.938H12.0242L13.7282 27.7374V29.2385H14.5396V27.7374L16.2436 24.938Z" fill="#FFB900"/>
<path d="M19.4894 29.2385H21.3962C22.7757 29.2385 23.7494 28.3866 23.7494 27.0883C23.7494 25.79 22.7757 24.938 21.3962 24.938H19.4894V29.2385ZM20.3008 28.5894V25.6277H21.3557C22.2888 25.6277 22.9379 26.1957 22.9379 27.0883C22.9379 27.9808 22.2888 28.5894 21.3557 28.5894H20.3008Z" fill="#FFB900"/>
<path d="M26.4272 28.5894V27.3723H28.5369V26.7231H26.4272V25.5871H28.7803V24.938H25.6158V29.2385H28.8615V28.5894H26.4272Z" fill="#FFB900"/>
<path d="M33.892 24.938L32.4315 28.2648L31.0115 24.938H30.1189L32.0257 29.2385H32.7966L34.7035 24.938H33.892Z" fill="#FFB900"/>
<path d="M36.2048 29.2385H36.9757V24.938H36.2048V29.2385Z" fill="#FFB900"/>
<path d="M41.195 29.3188C41.9253 29.3188 42.4933 29.0754 42.899 28.5885L42.4122 28.1017C42.0876 28.4262 41.6819 28.6291 41.2356 28.6291C40.343 28.6291 39.6939 27.9799 39.6939 27.0874C39.6939 26.1948 40.343 25.5862 41.2356 25.5862C41.6819 25.5862 42.0876 25.7485 42.4122 26.0731L42.899 25.5862C42.4933 25.0994 41.9253 24.856 41.195 24.856C39.8562 24.856 38.8824 25.7891 38.8824 27.0874C38.8824 28.3857 39.8562 29.3188 41.195 29.3188Z" fill="#FFB900"/>
<path d="M45.5362 28.5894V27.3723H47.6053V26.7231H45.5362V25.5871H47.8893V24.938H44.7247V29.2385H47.9704V28.5894H45.5362Z" fill="#FFB900"/>
<path d="M59.9797 29.2385H60.7911L58.8437 24.938H58.0729L56.1254 29.2385H56.9369L57.3831 28.2648H59.5334L59.9797 29.2385ZM57.6266 27.6157L58.438 25.7494L59.2494 27.6157H57.6266Z" fill="#7FBA00"/>
<path d="M65.4162 24.938V27.8591L63.0631 24.938H62.3734V29.2385H63.1848V26.3174L65.5785 29.2385H66.2276V24.938H65.4162Z" fill="#7FBA00"/>
<path d="M71.9886 24.938H71.1772L69.9194 27.0477L68.6617 24.938H67.7692L69.4732 27.7374V29.2385H70.2846V27.7374L71.9886 24.938Z" fill="#7FBA00"/>
<path d="M78.3178 24.938V27.8591L75.9241 24.938H75.2344V29.2385H76.0458V26.3174L78.4395 29.2385H79.0887V24.938H78.3178Z" fill="#7FBA00"/>
<path d="M82.091 28.5894V27.3723H84.2007V26.7231H82.091V25.5871H84.4441V24.938H81.2795V29.2385H84.5252V28.5894H82.091Z" fill="#7FBA00"/>
<path d="M87.3247 29.2385H88.1361V25.6277H89.5967V24.938H85.9047V25.6277H87.3247V29.2385Z" fill="#7FBA00"/>
<path d="M96.6966 24.938L95.6012 28.2243L94.5057 24.938H93.7755L92.6395 28.2243L91.5846 24.938H90.7326L92.1932 29.2385H93.0452L94.1406 26.0334L95.1955 29.2385H96.0474L97.4674 24.938H96.6966Z" fill="#7FBA00"/>
<path d="M101.159 29.3188C102.498 29.3188 103.472 28.3857 103.472 27.0874C103.472 25.7891 102.498 24.856 101.159 24.856C99.8205 24.856 98.8062 25.8297 98.8062 27.0874C98.8062 28.3857 99.8205 29.3188 101.159 29.3188ZM101.159 28.6291C100.267 28.6291 99.6176 27.9799 99.6176 27.0874C99.6176 26.1948 100.267 25.5862 101.159 25.5862C102.011 25.5862 102.66 26.1948 102.66 27.0874C102.66 27.9799 102.011 28.6291 101.159 28.6291Z" fill="#7FBA00"/>
<path d="M109.071 29.2385L108.057 27.8186C108.665 27.6157 108.99 27.1288 108.99 26.4797C108.99 25.506 108.3 24.938 107.164 24.938H105.379V29.2385H106.15V27.9808H107.164C107.205 27.9808 107.245 27.9808 107.326 27.9808L108.178 29.2385H109.071ZM108.178 26.4797C108.178 27.0071 107.813 27.3317 107.123 27.3317H106.15V25.6277H107.123C107.813 25.6277 108.178 25.9117 108.178 26.4797Z" fill="#7FBA00"/>
<path d="M113.939 29.2385H114.873L112.925 26.8448L114.751 24.938H113.858L111.708 27.1288V24.938H110.897V29.2385H111.708V28.1431L112.398 27.4534L113.939 29.2385Z" fill="#7FBA00"/>
<path d="M126.517 29.2385H127.369L125.421 24.938H124.61L122.662 29.2385H123.514L123.92 28.2648H126.111L126.517 29.2385ZM124.204 27.6157L125.015 25.7494L125.827 27.6157H124.204Z" fill="#00A4EF"/>
<path d="M131.994 24.938V27.8591L129.6 24.938H128.951V29.2385H129.762V26.3174L132.115 29.2385H132.805V24.938H131.994Z" fill="#00A4EF"/>
<path d="M138.566 24.938H137.755L136.497 27.0477L135.199 24.938H134.347L136.051 27.7374V29.2385H136.862V27.7374L138.566 24.938Z" fill="#00A4EF"/>
<path d="M140.919 29.2385H141.731V25.6277H143.151V24.938H139.499V25.6277H140.919V29.2385Z" fill="#00A4EF"/>
<path d="M144.814 29.2385H145.585V24.938H144.814V29.2385Z" fill="#00A4EF"/>
<path d="M152.523 29.2385V24.938H151.874L150.17 27.778L148.466 24.938H147.817V29.2385H148.587V26.4391L150.007 28.7517H150.332L151.793 26.3986V29.2385H152.523Z" fill="#00A4EF"/>
<path d="M155.525 28.5894V27.3723H157.635V26.7231H155.525V25.5871H157.919V24.938H154.754V29.2385H158V28.5894H155.525Z" fill="#00A4EF"/>
</svg>
