<svg width="24" height="36" viewBox="0 0 24 36" fill="none" xmlns="http://www.w3.org/2000/svg">
<g clip-path="url(#clip0)">
<path d="M12 0C5.38304 0 0 5.38082 0 11.9942V24.0065C0 30.6197 5.38304 36 12 36C18.617 36 24 30.6199 24 24.0065V11.9942C24 5.38082 18.6168 0 12 0ZM22.6667 24.0065C22.6667 29.8847 17.8816 34.6667 12 34.6667C6.1184 34.6667 1.33331 29.8847 1.33331 24.0065V11.9942C1.33331 6.116 6.1184 1.33331 12 1.33331C17.8816 1.33331 22.6667 6.11583 22.6667 11.9942V24.0065Z" fill="url(#paint0_linear)"/>
<path d="M11.9998 23C11.6316 23 11.333 23.2982 11.333 23.6667V29.7039C11.333 30.0724 11.6316 30.3706 11.9998 30.3706C12.3679 30.3706 12.6665 30.0724 12.6665 29.7039V23.6667C12.6663 23.2982 12.3679 23 11.9998 23Z" fill="url(#paint1_linear)"/>
</g>
<defs>
<linearGradient id="paint0_linear" x1="0.159183" y1="0.576355" x2="33.5034" y2="15.4868" gradientUnits="userSpaceOnUse">
<stop stop-color="#AAD6FF"/>
<stop offset="1" stop-color="#2E8ACB"/>
</linearGradient>
<linearGradient id="paint1_linear" x1="11.3419" y1="23.118" x2="13.5327" y2="23.3839" gradientUnits="userSpaceOnUse">
<stop stop-color="#AAD6FF"/>
<stop offset="1" stop-color="#2E8ACB"/>
</linearGradient>
<clipPath id="clip0">
<rect width="24" height="36" fill="white"/>
</clipPath>
</defs>
</svg>
