<svg width="962" height="523" viewBox="0 0 962 523" fill="none" xmlns="http://www.w3.org/2000/svg">
<path opacity="0.8" d="M55 262.649C55 265.184 57.12 267.297 59.664 267.297C62.208 267.297 64.328 265.184 64.328 262.649C64.328 260.113 62.208 258 59.664 258C57.12 258 55 260.113 55 262.649Z" fill="#AAD6FF"/>
<path opacity="0.8" d="M831.076 349.92C831.076 352.738 833.432 355.085 836.258 355.085C839.084 355.085 841.44 352.738 841.44 349.92C841.44 347.103 839.084 344.756 836.258 344.756C833.196 344.756 831.076 347.103 831.076 349.92Z" fill="#AAD6FF"/>
<path opacity="0.8" d="M674.211 341.001C674.211 341.94 675.153 342.879 676.095 342.879C677.037 342.879 677.98 341.94 677.98 341.001C677.98 340.062 677.037 339.123 676.095 339.123C675.153 339.123 674.211 340.062 674.211 341.001Z" fill="#AAD6FF"/>
<path opacity="0.8" d="M661.942 188.062C663.144 188.062 664.119 189.033 664.119 190.231C664.119 191.429 663.144 192.401 661.942 192.401C660.74 192.401 659.765 191.429 659.765 190.231C659.765 189.033 660.74 188.062 661.942 188.062Z" fill="#AAD6FF"/>
<path opacity="0.8" d="M662.959 136.199C663.776 135.928 664.32 134.843 664.048 134.03C663.776 133.216 662.687 132.674 661.871 132.945C661.055 133.216 660.511 134.301 660.783 135.114C661.055 135.928 662.143 136.47 662.959 136.199Z" fill="#AAD6FF"/>
<path opacity="0.8" d="M804.238 206.793C804.238 203.539 801.517 200.827 798.252 200.827C794.987 200.827 792.266 203.539 792.266 206.793C792.266 210.047 794.987 212.759 798.252 212.759C801.517 212.759 804.238 210.047 804.238 206.793Z" fill="#AAD6FF"/>
<path opacity="0.8" d="M961.697 48.9663C961.697 45.7121 958.977 43.0003 955.712 43.0003C952.447 43.0003 949.726 45.7121 949.726 48.9663C949.726 52.2205 952.447 54.9324 955.712 54.9324C958.977 54.9324 961.697 52.2205 961.697 48.9663Z" fill="#AAD6FF"/>
<path opacity="0.8" d="M632.725 0.684683C635.129 0.684683 637.078 2.62729 637.078 5.02362C637.078 7.41994 635.129 9.36255 632.725 9.36255C630.321 9.36255 628.371 7.41994 628.371 5.02362C628.371 2.62729 630.321 0.684683 632.725 0.684683Z" fill="#AAD6FF"/>
<path opacity="0.8" d="M9.29722 517.649C9.29722 515.113 7.18422 513 4.64861 513C2.113 513 0 515.113 0 517.649C0 520.184 2.113 522.297 4.64861 522.297C7.39552 522.297 9.29722 520.184 9.29722 517.649Z" fill="#AAD6FF"/>
<path opacity="0.8" d="M398 231.649C398 234.184 400.113 236.297 402.649 236.297C405.184 236.297 407.297 234.184 407.297 231.649C407.297 229.113 405.184 227 402.649 227C400.113 227 398 229.113 398 231.649Z" fill="#AAD6FF"/>
<path opacity="0.8" d="M472.267 126.432C473.032 128.849 471.655 131.502 469.238 132.267C466.821 133.032 464.168 131.655 463.403 129.238C462.638 126.821 464.014 124.168 466.432 123.403C468.849 122.638 471.501 124.015 472.267 126.432Z" fill="#AAD6FF"/>
<path opacity="0.8" d="M354.267 155.854C355.032 158.271 353.655 160.923 351.238 161.688C348.821 162.454 346.168 161.077 345.403 158.66C344.638 156.242 346.014 153.59 348.432 152.825C350.849 152.059 353.501 153.436 354.267 155.854Z" fill="#AAD6FF"/>
</svg>
